#tb 0: 1/25
#media_type 0: video
#codec_id 0: rawvideo
#dimensions 0: 352x288
#sar 0: 0/1
0,          0,          0,        1,   405504, 0x91b5634d
0,          1,          1,        1,   405504, 0x16b3b6c6
0,          2,          2,        1,   405504, 0x94660b56
0,          3,          3,        1,   405504, 0x99098f0b
0,          4,          4,        1,   405504, 0x2a9edda5
0,          5,          5,        1,   405504, 0xe59d4392
0,          6,          6,        1,   405504, 0x3172fb02
0,          7,          7,        1,   405504, 0xa735ccd3
0,          8,          8,        1,   405504, 0xb0440d78
0,          9,          9,        1,   405504, 0xa5aac67c
0,         10,         10,        1,   405504, 0x73d06232
0,         11,         11,        1,   405504, 0x84f19818
0,         12,         12,        1,   405504, 0xdf0c0dce
0,         13,         13,        1,   405504, 0xdf82e624
0,         14,         14,        1,   405504, 0xf2737cd2
0,         15,         15,        1,   405504, 0xaa8d8bac
0,         16,         16,        1,   405504, 0x90695fdb
0,         17,         17,        1,   405504, 0xb5875106
0,         18,         18,        1,   405504, 0x6af5929e
0,         19,         19,        1,   405504, 0x7dff8ef2
0,         20,         20,        1,   405504, 0x3b28d388
0,         21,         21,        1,   405504, 0x902aa4d2
0,         22,         22,        1,   405504, 0x940c869f
0,         23,         23,        1,   405504, 0xef4c9017
0,         24,         24,        1,   405504, 0xdb110019
0,         25,         25,        1,   405504, 0x54b96612
0,         26,         26,        1,   405504, 0x50de446d
0,         27,         27,        1,   405504, 0xfb31a27b
0,         28,         28,        1,   405504, 0xdc678a45
0,         29,         29,        1,   405504, 0xc4263483
0,         30,         30,        1,   405504, 0x87a288b1
0,         31,         31,        1,   405504, 0xb34d5878
0,         32,         32,        1,   405504, 0xaa69c04c
0,         33,         33,        1,   405504, 0x625ea9f3
0,         34,         34,        1,   405504, 0xa56f806d
0,         35,         35,        1,   405504, 0xcbe0f58d
0,         36,         36,        1,   405504, 0xeba003e1
0,         37,         37,        1,   405504, 0x5e22a00c
0,         38,         38,        1,   405504, 0x4160446c
0,         39,         39,        1,   405504, 0xee35793d
0,         40,         40,        1,   405504, 0x604d854c
0,         41,         41,        1,   405504, 0x6a1ca614
0,         42,         42,        1,   405504, 0x28cf7f5d
0,         43,         43,        1,   405504, 0xa1654ff2
0,         44,         44,        1,   405504, 0xbbbf88d7
0,         45,         45,        1,   405504, 0x7d8e16d3
0,         46,         46,        1,   405504, 0x149c286c
0,         47,         47,        1,   405504, 0x023b1202
0,         48,         48,        1,   405504, 0xfb37ac74
0,         49,         49,        1,   405504, 0xb03837d4
